PathFileType	4	(X/Y/Z)	C:\Users\Basilio\Documents\Thesis Gigler\squatting_fais\c3dfiles\039\SLS_pre_back1\markers_experimental.trc
DataRate	CameraRate	NumFrames	NumMarkers	Units	OrigDataRate	OrigDataStartFrame	OrigNumFrames
200.000000	200.000000	4	63	mm	200.000000	0	1775
Frame#	Time	FHD			LBHD			RBHD			C7			T10			CLAV			LSHO			LUUPA			LMUPA			LDUPA			LLEP			LMEP			LRAD			LUL			LRFIN			RSHO			RUPA1			RMUPA			RDUPA			RLEP			RMEP			RRAD			RUL			RUFIN			LASI			RASI			USACR			LSACR			RSACR			LTHI1			LTHI2			LTHI3			LTHI4			LLFC			LMFC			LTIB1			LTIB2			LTIB3			LTIB4			LLMAL			LMMAL			LHEE			LMT1			LMT2			LMT5			RTHI			RTHI2			RTHI3			RTHI4			RLFC			RMFC			RTIB1			RTIB2			RTIB3			RTIB4			RLMAL			RMMAL			RHEE			RMT1			RMT2			RMT5			*61			*62			
		X1	Y1	Z1	X2	Y2	Z2	X3	Y3	Z3	X4	Y4	Z4	X5	Y5	Z5	X6	Y6	Z6	X7	Y7	Z7	X8	Y8	Z8	X9	Y9	Z9	X10	Y10	Z10	X11	Y11	Z11	X12	Y12	Z12	X13	Y13	Z13	X14	Y14	Z14	X15	Y15	Z15	X16	Y16	Z16	X17	Y17	Z17	X18	Y18	Z18	X19	Y19	Z19	X20	Y20	Z20	X21	Y21	Z21	X22	Y22	Z22	X23	Y23	Z23	X24	Y24	Z24	X25	Y25	Z25	X26	Y26	Z26	X27	Y27	Z27	X28	Y28	Z28	X29	Y29	Z29	X30	Y30	Z30	X31	Y31	Z31	X32	Y32	Z32	X33	Y33	Z33	X34	Y34	Z34	X35	Y35	Z35	X36	Y36	Z36	X37	Y37	Z37	X38	Y38	Z38	X39	Y39	Z39	X40	Y40	Z40	X41	Y41	Z41	X42	Y42	Z42	X43	Y43	Z43	X44	Y44	Z44	X45	Y45	Z45	X46	Y46	Z46	X47	Y47	Z47	X48	Y48	Z48	X49	Y49	Z49	X50	Y50	Z50	X51	Y51	Z51	X52	Y52	Z52	X53	Y53	Z53	X54	Y54	Z54	X55	Y55	Z55	X56	Y56	Z56	X57	Y57	Z57	X58	Y58	Z58	X59	Y59	Z59	X60	Y60	Z60	X61	Y61	Z61	X62	Y62	Z62	X63	Y63	Z63	

1	0	-290.0550231933594	1790.137939453125	-766.6222534179689	-441.3628540039064	1751.28564453125	-892.5334472656252	-420.1031188964845	1759.624145507813	-752.4218139648439	-474.8178100585939	1580.050415039063	-841.093933105469	-452.4459533691407	1270.374267578125	-854.066345214844	-325.5294799804688	1528.936279296875	-833.7016601562502	-381.7212829589844	1584.015014648438	-1004.600646972656	-220.5611114501954	1486.449462890625	-1109.822143554688	-190.6270751953125	1521.418823242188	-1090.589233398438	-151.1528015136719	1483.90966796875	-1115.83203125	-82.30582427978517	1481.799926757813	-1115.402465820313	-89.44878387451173	1415.894287109375	-1070.562255859375	182.5884704589844	1492.433227539063	-988.1314086914065	193.5880889892579	1487.743774414063	-1062.889526367188	264.3482055664063	1522.244140625	-976.4661865234377	-379.0304260253907	1577.6796875	-665.0384521484376	-238.1035156250001	1451.709594726563	-564.1408081054689	-201.713851928711	1481.033081054688	-580.0846557617189	-171.0993804931641	1432.162109375	-559.9094238281251	-106.5108184814453	1430.8818359375	-563.0205688476564	-113.7634429931641	1370.971435546875	-615.1188964843751	184.7612457275391	1433.987426757813	-647.4679565429689	181.723373413086	1407.994262695313	-574.6048583984376	271.0358581542969	1455.7109375	-631.9385986328126	-259.5571594238282	1102.191650390625	-964.2990722656252	-261.6636047363282	1090.058471679688	-739.0339965820314	-449.2966308593751	1144.079467773438	-852.5750122070315	-448.3035888671876	1111.80078125	-881.2830810546877	-453.1457824707032	1110.5498046875	-823.0041503906252	-324.7173767089844	821.6445922851565	-1045.909423828125	-289.2230834960938	744.6959838867189	-1052.4365234375	-241.9512023925782	750.0463256835939	-1047.179077148438	-314.2764282226563	690.5514526367189	-1041.132080078125	-313.7659606933594	567.9261474609376	-1044.583740234375	-275.6332397460938	536.9818115234376	-934.7273559570315	-258.2647094726563	418.3204956054689	-1035.443115234375	-328.4794006347657	380.6048889160157	-1073.694702148438	-286.4533691406251	374.7136840820313	-1060.843383789063	-283.6976928710938	293.2402954101563	-1027.8896484375	-350.0801696777344	128.0735931396485	-1063.422729492188	-327.5391235351563	124.3966369628907	-980.5340576171877	-415.6399536132814	84.1732635498047	-1024.831665039063	-183.9488830566407	56.14253997802736	-1014.175354003906	-189.8400268554688	53.82540130615236	-1056.803955078125	-241.1168365478516	34.50482177734376	-1105.5595703125	-295.8832702636719	815.1978149414065	-681.2897949218751	-250.9906311035157	765.3176879882814	-680.8786621093751	-220.217758178711	771.8269042968752	-687.5509033203126	-271.1216735839844	682.8607788085939	-693.1707153320314	-295.9313964843751	542.5574340820314	-720.2448120117189	-259.6893920898438	535.3820190429689	-834.3203125000002	-271.1641540527344	329.7148742675782	-739.5560302734376	-361.1403503417969	270.7869873046876	-733.0275878906251	-315.7439270019532	258.3869628906251	-732.5511474609376	-301.6184997558594	209.2205200195313	-765.7442016601564	-372.7403259277344	121.0403060913086	-744.7185058593751	-343.4157409667969	136.4507446289063	-829.1602172851565	-441.6788635253907	97.76568603515628	-794.7207031250002	-216.4231109619141	54.39109802246095	-806.2910766601565	-220.3499603271485	56.2438430786133	-760.7956542968751	-275.0522766113282	37.4986686706543	-708.7378540039064	nan	nan	nan	nan	nan	nan	
2	0.005	-290.9822692871094	1790.437255859375	-766.6524047851564	-442.2120361328126	1751.109985351563	-892.4957275390627	-420.8743286132814	1759.483642578125	-752.4376831054689	-475.2047119140626	1579.851684570313	-841.0579223632815	-452.4707641601564	1270.311279296875	-854.1483154296877	-325.7668762207032	1529.202514648438	-833.6907348632815	-382.0502624511719	1584.39013671875	-1004.426086425781	-220.113754272461	1488.529418945313	-1109.343139648438	-190.3719482421875	1523.416625976563	-1089.758056640625	-150.5637817382813	1486.425537109375	-1115.057373046875	-81.72376251220705	1484.704833984375	-1114.333984375	-88.63695526123048	1418.601440429688	-1069.802612304688	182.9017333984375	1496.733276367188	-986.4807128906252	194.0574798583985	1492.2890625	-1061.612548828125	264.6168823242188	1526.867309570313	-975.0237426757815	-379.3811035156251	1578.193481445313	-665.3369750976564	-237.5517730712891	1453.385131835938	-565.3015747070314	-200.8843841552735	1483.001708984375	-581.1672363281251	-169.9799194335938	1434.712768554688	-560.9320678710939	-105.5255966186524	1433.945190429688	-564.0482177734376	-112.7523345947266	1374.51416015625	-616.5151367187501	185.8544006347657	1438.657348632813	-648.8750610351564	182.463134765625	1412.731689453125	-576.2219238281251	271.9360961914063	1460.800048828125	-633.4705200195314	-259.3761596679688	1102.23779296875	-964.4625244140627	-261.5115356445313	1090.075317382813	-739.0524902343751	-449.1264953613282	1144.040161132813	-852.691589355469	-448.0545043945314	1111.754516601563	-881.376403808594	-452.936981201172	1110.491088867188	-823.1389770507815	-324.6021423339844	821.6548461914065	-1046.0078125	-289.1002502441407	744.6852416992189	-1052.542846679688	-241.8597869873047	750.0648803710939	-1047.245849609375	-314.1642150878907	690.5745239257814	-1041.216796875	-313.7517700195313	567.9382324218751	-1044.631103515625	-275.6667175292969	536.9859008789064	-934.797546386719	-258.2373352050782	418.3175048828126	-1035.494018554688	-328.4247436523438	380.5897521972657	-1073.763061523438	-286.9700012207032	373.9842834472657	-1061.070922851563	-283.6694946289063	293.1997680664063	-1027.921508789063	-350.0628662109376	128.0565795898438	-1063.421508789063	-327.4866943359376	124.3910598754883	-980.5496826171877	-415.6240539550782	84.15958404541017	-1024.8896484375	-183.9301910400391	56.17539596557619	-1014.172241210938	-189.8578643798828	53.80837631225587	-1056.800415039063	-241.1051940917969	34.49142074584962	-1105.588500976563	-295.6757812500001	815.213317871094	-681.4114990234376	-250.8013458251954	765.3422241210939	-680.9948730468751	-220.0478973388672	771.8112792968752	-687.6722412109376	-270.9501342773438	682.8762207031251	-693.3403320312501	-295.8141784667969	542.5945434570314	-720.3162231445314	-259.6148071289063	535.3663940429689	-834.4287719726565	-271.1018981933594	329.7185058593751	-739.6475219726564	-361.0787658691407	270.7964782714844	-733.0899658203126	-315.6954650878907	258.3973693847657	-732.6017456054689	-301.5853881835938	209.2209625244141	-765.7847290039064	-372.7344360351563	121.0323257446289	-744.7216796875001	-343.4295349121094	136.433837890625	-829.1777954101565	-441.6858215332032	97.80225372314456	-794.7326660156252	-216.3919677734376	54.38381195068361	-806.2730712890627	-220.3457641601563	56.23802185058595	-760.8154907226564	-275.0563659667969	37.54826354980469	-708.7159423828126	nan	nan	nan	nan	nan	nan	
3	0.01	-291.8256225585938	1790.715087890625	-766.5885620117189	-443.0408630371095	1750.85986328125	-891.933044433594	-421.5855407714845	1759.31298828125	-752.4067382812501	-475.5078125000001	1579.737182617188	-841.0452880859377	-452.3224487304689	1270.175537109375	-854.1989746093752	-325.8410949707032	1529.608154296875	-833.7918701171877	-382.3476867675782	1584.712524414063	-1004.184387207031	-219.6605834960938	1490.513671875	-1108.818725585938	-190.322021484375	1525.655151367188	-1088.977172851563	-150.0985717773438	1488.83740234375	-1114.266723632813	-81.22607421875001	1487.581176757813	-1113.300048828125	-87.82101440429689	1421.289794921875	-1068.831787109375	183.3148651123047	1500.68505859375	-985.1247558593752	195.0101470947266	1496.280883789063	-1060.294677734375	264.7838134765626	1531.333740234375	-973.4583129882815	-379.6889648437501	1578.672119140625	-665.6713867187501	-236.7575683593751	1455.513793945313	-565.8267822265626	-200.4945068359376	1485.268920898438	-581.8474121093751	-169.2584991455078	1437.281127929688	-561.5576782226564	-104.5770797729492	1436.8974609375	-565.0628662109376	-111.4881362915039	1377.475463867188	-617.5409545898439	186.3955993652344	1443.408081054688	-650.0906982421876	183.784423828125	1417.829223632813	-577.0057373046876	272.6454467773438	1465.831420898438	-635.0158691406251	-259.0115966796876	1102.326171875	-964.6563110351565	-261.3516845703126	1090.081176757813	-739.1066894531251	-448.9286499023439	1143.99560546875	-852.8323974609377	-447.8685913085939	1111.714233398438	-881.4694824218752	-452.7196044921876	1110.455810546875	-823.2420043945315	-324.4636840820313	821.223815917969	-1046.206176757813	-288.9805603027344	744.7057495117189	-1052.607299804688	-241.754379272461	750.0671997070314	-1047.383911132813	-314.0584106445313	690.5711669921876	-1041.265014648438	-313.7041015625001	567.9326171875001	-1044.733642578125	-275.5671386718751	536.9817504882814	-934.8284301757815	-258.2390441894532	418.3214111328126	-1035.559814453125	-328.4598388671876	380.5913696289063	-1073.807250976563	-286.4407348632813	374.6774291992188	-1060.980712890625	-283.6758117675782	293.2379455566407	-1027.94189453125	-350.0801696777344	128.0735931396485	-1063.422729492188	-327.5690002441407	124.4084548950196	-980.554138183594	-415.6097717285157	84.15887451171876	-1024.857055664063	-183.9101715087891	56.13992309570314	-1014.201416015625	-189.845703125	53.82115554809572	-1056.793334960938	-241.0774993896485	34.47846603393555	-1105.588623046875	-295.3976135253907	815.2270507812502	-681.5065917968751	-250.5846252441407	765.3485717773439	-681.1409301757814	-219.8070220947266	771.7779541015627	-687.8460083007814	-270.9760131835938	682.5059204101564	-693.6129760742189	-295.6820373535157	542.5855712890626	-720.4245605468751	-259.5611572265626	535.3303222656251	-834.540466308594	-271.0743103027344	329.7029418945313	-739.7069091796876	-361.0441589355469	270.8153686523438	-733.1199951171876	-315.6297302246094	258.3970947265626	-732.6823730468751	-301.5509338378907	209.2480163574219	-765.8035888671876	-372.7539062500001	121.0521087646485	-744.7448120117189	-343.4333496093751	136.4479675292969	-829.1998291015627	-441.7072143554689	97.78533172607425	-794.7598876953127	-216.4029541015626	54.40841674804689	-806.289001464844	-220.3512420654297	56.2199172973633	-760.8322753906251	-275.0479431152344	37.53729629516602	-708.7199096679689	nan	nan	nan	nan	nan	nan	
4	0.015	-292.5681762695313	1790.859252929688	-766.4150390625001	-444.0356750488282	1750.63671875	-891.2886962890627	-422.4626464843751	1759.169067382813	-752.2941284179689	-475.9391174316407	1579.56298828125	-841.0315551757815	-452.2701110839845	1270.089477539063	-854.252136230469	-325.8839111328126	1529.810424804688	-833.829772949219	-382.5631713867188	1585.028198242188	-1003.953674316406	-219.0918884277344	1492.553466796875	-1108.39892578125	-189.9983215332032	1527.606567382813	-1088.12255859375	-149.5867156982422	1491.311767578125	-1113.472290039063	-80.76348876953126	1490.381958007813	-1112.204467773438	-87.12480926513673	1424.056518554688	-1068.000854492188	183.3973693847657	1504.968139648438	-984.1214599609377	194.8841552734376	1501.14990234375	-1059.112915039063	264.8423767089844	1535.88818359375	-971.9958496093752	-379.9618225097657	1579.136840820313	-666.0054321289064	-235.717025756836	1458.049072265625	-565.7522583007814	-200.1038818359376	1487.903198242188	-582.5073852539064	-168.1716003417969	1439.7626953125	-562.6594238281251	-103.8652420043946	1439.900024414063	-566.1696777343751	-110.3328704833985	1380.26171875	-618.3584594726564	187.3416748046875	1448.044189453125	-651.6224365234376	184.9900970458985	1422.518188476563	-578.3632812500001	273.3764343261719	1470.693481445313	-636.4691162109376	-258.6048278808594	1102.4443359375	-964.8593750000002	-261.1289367675782	1090.08935546875	-739.2689208984376	-448.7267456054689	1143.94384765625	-852.9440917968752	-447.6185913085939	1111.695556640625	-881.5894165039065	-452.4634399414064	1110.446655273438	-823.3387451171877	-324.3391723632813	821.7436523437502	-1046.254638671875	-288.8468933105469	744.6979980468751	-1052.686645507813	-241.1056671142579	749.5121459960939	-1047.281860351563	-313.9291687011719	690.6081542968751	-1041.379638671875	-313.7119140625001	567.9677734375001	-1044.806762695313	-275.5031738281251	537.0118408203126	-934.9157714843752	-258.2339782714844	418.3433837890626	-1035.611694335938	-328.4505310058594	380.5531311035157	-1073.823364257813	-286.9330444335938	373.9682006835938	-1061.206176757813	-283.6809082031251	293.2465820312501	-1027.984008789063	-350.0627136230469	128.0569305419922	-1063.42138671875	-327.5498046875001	124.4085922241211	-980.5776977539065	-415.6240539550782	84.15958404541017	-1024.8896484375	-183.9157409667969	56.15587234497072	-1014.205993652344	-189.8283233642578	53.77707290649415	-1056.80419921875	-241.0929718017579	34.4809684753418	-1105.584350585938	-295.1001586914063	815.211853027344	-681.7269897460939	-250.3660736083985	765.3452758789064	-681.1904296875001	-219.5118408203126	771.7536621093752	-688.0241699218751	-270.7909545898438	682.4837036132814	-693.7598876953126	-295.5499877929688	542.6017456054689	-720.5404052734376	-259.4923095703126	535.3128662109376	-834.7037353515627	-270.9743957519532	329.6914978027344	-739.7658691406251	-360.9871215820313	270.8205566406251	-733.1839599609376	-315.5907592773438	258.3806152343751	-732.7800292968751	-301.5193786621094	209.2193145751954	-765.8537597656251	-372.7316894531251	121.0646057128907	-744.7431030273439	-343.4573059082032	136.4358825683594	-829.2142333984377	-441.702606201172	97.78778839111331	-794.7351684570315	-216.4026947021485	54.36715698242189	-806.3208618164065	-220.3535156250001	56.23899841308595	-760.8394775390626	-275.0494995117188	37.53722000122071	-708.7222290039064	nan	nan	nan	nan	nan	nan	
